# xmcd CD database file
#
# Track frame offsets:
#	150
#	20068
#	39243
#	58264
#	75998
#	94999
#	114143
#	132963
#	157132
#	172913
#	195488
#	213341
#	231627
#
# Disc length: 3319 seconds
#
# Revision: 0
# Processed by: cddbd v1.5.2PL0 Copyright (c) Steve Scherf et al.
# Submitted via: CDex 1.51
#
DISCID=aa0cf50d
DTITLE=John Kelly - Waiting
DYEAR=2003
DGENRE=Country
TTITLE0=Hey
TTITLE1=Rest Easy
TTITLE2=The Last Train Out
TTITLE3=I Won't Let You Down
TTITLE4=Heaven Help
TTITLE5=Victory Flight
TTITLE6=Sayonara
TTITLE7=Mr. Raymond John
TTITLE8=The Only Thing
TTITLE9=I Can Breathe Again
TTITLE10=Waiting
TTITLE11=You And Me
TTITLE12=Try
EXTD=YEAR: 2003
EXTT0=
EXTT1=
EXTT2=
EXTT3=
EXTT4=
EXTT5=
EXTT6=
EXTT7=
EXTT8=
EXTT9=
EXTT10=
EXTT11=
EXTT12=
PLAYORDER=
